<?xml version="1.0" standalone="no"?>
<!DOCTYPE svg PUBLIC "-//W3C//DTD SVG 20010904//EN"
 "http://www.w3.org/TR/2001/REC-SVG-20010904/DTD/svg10.dtd">
<svg version="1.0" xmlns="http://www.w3.org/2000/svg"
 width="128.000000pt" height="128.000000pt" viewBox="0 0 128.000000 128.000000"
 preserveAspectRatio="xMidYMid meet">
<metadata>
Created by potrace 1.15, written by Peter Selinger 2001-2017
</metadata>
<g transform="translate(0.000000,128.000000) scale(0.100000,-0.100000)"
fill="#000000" stroke="none">
<path d="M452 1255 c-205 -70 -384 -265 -436 -476 -21 -84 -21 -246 -1 -323
36 -138 151 -294 269 -365 179 -108 387 -119 609 -33 192 75 321 219 372 417
20 77 20 253 0 328 -46 175 -179 326 -369 417 -99 47 -160 60 -279 60 -71 0
-108 -6 -165 -25z m298 -136 c25 -6 73 -24 107 -41 60 -29 62 -31 48 -51 -22
-31 -18 -92 12 -192 35 -118 36 -209 4 -334 l-24 -94 -37 109 c-21 60 -56 156
-79 213 -22 58 -41 108 -41 112 0 4 15 9 32 11 31 3 33 6 40 53 4 27 4 53 0
57 -10 10 -70 13 -223 10 -148 -2 -165 -10 -155 -65 6 -33 11 -37 46 -43 36
-6 39 -9 50 -53 6 -25 20 -65 30 -89 l19 -43 -34 -103 c-19 -57 -35 -112 -35
-122 0 -33 -16 -1 -70 141 -29 77 -65 168 -81 202 l-28 63 32 -3 c31 -2 32 -1
35 41 4 59 -9 72 -75 72 l-55 0 51 43 c57 49 125 85 191 103 56 16 180 17 240
3z m-495 -594 c46 -121 92 -244 104 -273 20 -49 20 -52 3 -43 -41 22 -123 106
-162 164 -60 92 -84 179 -78 286 3 47 12 99 19 115 l13 28 9 -28 c5 -16 47
-128 92 -249z m875 137 c0 -137 -45 -256 -138 -364 -25 -29 -43 -46 -40 -38 3
8 41 120 84 247 43 128 82 233 87 233 4 0 7 -35 7 -78z m-411 -346 c33 -88 58
-162 56 -166 -14 -23 -241 -37 -262 -16 -2 1 16 54 41 117 24 63 54 147 67
187 17 52 25 68 30 55 4 -10 34 -90 68 -177z"/>
</g>
</svg>
